<?xml version="1.0" encoding="utf-8"?>
<!-- Generator: Adobe Illustrator 15.0.0, SVG Export Plug-In . SVG Version: 6.00 Build 0)  -->
<!DOCTYPE svg PUBLIC "-//W3C//DTD SVG 1.1//EN" "http://www.w3.org/Graphics/SVG/1.1/DTD/svg11.dtd">
<svg version="1.1" id="Calque_1" xmlns="http://www.w3.org/2000/svg" xmlns:xlink="http://www.w3.org/1999/xlink" x="0px" y="0px"
	 width="603.681px" height="603.68px" viewBox="0 0 603.681 603.68" enable-background="new 0 0 603.681 603.68"
	 xml:space="preserve">
<circle fill="#8CC63F" cx="301.841" cy="301.84" r="301.841"/>
<path fill="#FFFFFF" d="M119.687,115.25l173.257,173.257L280.05,395.685c0,0-33.442-0.402-70.915-37.875
	C83.214,231.889,119.687,115.25,119.687,115.25z"/>
<path fill="#FFFFFF" d="M279.778,415.133c0,0-13.158,1.953-40.432-11.904c-12.192-6.193-30.077-22.354-30.077-22.354
	s-8.18,15.915-22.27,47.408c-14.089,31.493,23.228,114.076,49.406,68.8C262.583,451.808,279.778,415.133,279.778,415.133z"/>
<path fill="#FFFFFF" d="M483.051,115.25L309.793,288.507l12.894,107.178c0,0,33.443-0.402,70.915-37.875
	C519.523,231.889,483.051,115.25,483.051,115.25z"/>
<path fill="#FFFFFF" d="M322.959,415.133c0,0,13.158,1.953,40.433-11.904c12.191-6.193,30.076-22.354,30.076-22.354
	s8.18,15.915,22.27,47.408s-23.229,114.076-49.405,68.8C340.154,451.808,322.959,415.133,322.959,415.133z"/>
</svg>
